<svg width="16" height="16" viewBox="0 0 16 16" fill="none" xmlns="http://www.w3.org/2000/svg">
<rect width="16" height="16" rx="1" fill="#6C1FBA"/>
<path d="M4 3L12.1558 3C12.6221 3 13 3.37794 13 3.84416C13 4.31037 12.6221 4.68831 12.1558 4.68831L5.28059 4.68831C4.85742 4.68831 4.51436 5.03137 4.51436 5.45454C4.51436 5.87772 4.85742 6.22078 5.28059 6.22078L12 6.22078C12.5523 6.22078 13 6.66849 13 7.22078L13 11.8977C13 12.4455 12.5592 12.8914 12.0114 12.8976L4.01136 12.9885C3.45467 12.9948 3 12.5453 3 11.9886L3 10.5455C3 9.99317 3.44772 9.54545 4 9.54545L5.52907 9.54545C6.08135 9.54545 6.52907 9.99317 6.52907 10.5455L6.52907 10.6591C6.52907 11.2114 6.97678 11.6591 7.52907 11.6591L8.89295 11.6591C9.44523 11.6591 9.89295 11.2114 9.89295 10.6591L9.89295 9.01299C9.89295 8.4607 9.44523 8.01299 8.89295 8.01299L4 8.01299C3.44771 8.01299 3 7.56527 3 7.01299L3 4C3 3.44771 3.44772 3 4 3Z" fill="white"/>
</svg>
