<svg width="16" height="16" viewBox="0 0 16 16" fill="none" xmlns="http://www.w3.org/2000/svg">
<rect width="16" height="16" rx="1" fill="#6C1FBA"/>
<path d="M2.6 1.60001L13.4 1.60001C13.9523 1.60001 14.4 2.04772 14.4 2.60001L14.4 2.76105C14.4 3.31333 13.9523 3.76104 13.4 3.76104L4.51916 3.76104C3.97749 3.76104 3.53838 4.20015 3.53838 4.74182C3.53838 5.28349 3.97749 5.7226 4.51916 5.7226L13.4 5.7226C13.9523 5.7226 14.4 6.17032 14.4 6.7226L14.4 13.2659C14.4 13.8137 13.9592 14.2596 13.4114 14.2658L2.61136 14.3885C2.05467 14.3948 1.6 13.9453 1.6 13.3886L1.6 10.9782C1.6 10.4259 2.04772 9.97819 2.6 9.97819L5.11721 9.97819C5.6695 9.97819 6.11721 10.4259 6.11721 10.9782L6.11721 11.6836C6.11721 12.2359 6.56493 12.6836 7.11721 12.6836L9.42298 12.6836C9.97526 12.6836 10.423 12.2359 10.423 11.6836L10.423 9.01663C10.423 8.46434 9.97526 8.01663 9.42298 8.01663L2.6 8.01663C2.04772 8.01663 1.6 7.56891 1.6 7.01663L1.6 2.60001C1.6 2.04772 2.04772 1.60001 2.6 1.60001Z" fill="white"/>
</svg>
