<svg width="250" height="250" viewBox="0 0 250 250" fill="none" xmlns="http://www.w3.org/2000/svg">
<rect width="250" height="250" rx="10" fill="#6C1FBA"/>
<path d="M51 45L199 45C202.314 45 205 47.6863 205 51L205 66.013C205 69.3267 202.314 72.013 199 72.013L75.2298 72.013C71.9161 72.013 69.2298 74.6993 69.2298 78.013L69.2298 90.5325C69.2298 93.8462 71.9161 96.5325 75.2298 96.5325L199 96.5325C202.314 96.5325 205 99.2188 205 102.532L205 197.25C205 200.537 202.355 203.212 199.068 203.249L51.0682 204.931C47.728 204.969 45 202.272 45 198.931L45 155.727C45 152.414 47.6863 149.727 51 149.727L95.4651 149.727C98.7788 149.727 101.465 152.414 101.465 155.727L101.465 177.545C101.465 180.859 104.151 183.545 107.465 183.545L149.287 183.545C152.601 183.545 155.287 180.859 155.287 177.545L155.287 131.208C155.287 127.894 152.601 125.208 149.287 125.208L51 125.208C47.6863 125.208 45 122.521 45 119.208L45 51C45 47.6863 47.6863 45 51 45Z" fill="white"/>
</svg>
