<svg width="25" height="25" viewBox="0 0 25 25" fill="none" xmlns="http://www.w3.org/2000/svg">
<rect width="25" height="25" rx="3" fill="#6C1FBA"/>
<path d="M5.6875 4.6875L19.3125 4.6875C19.8648 4.6875 20.3125 5.13522 20.3125 5.6875L20.3125 6.32549C20.3125 6.87777 19.8648 7.32549 19.3125 7.32549L8.05369 7.32549C7.5014 7.32549 7.05369 7.7732 7.05369 8.32549L7.05369 8.71997C7.05369 9.27225 7.5014 9.71997 8.05369 9.71997L19.3125 9.71997C19.8648 9.71997 20.3125 10.1677 20.3125 10.72L20.3125 19.1462C20.3125 19.6941 19.8717 20.14 19.3239 20.1462L5.69886 20.301C5.14217 20.3073 4.6875 19.8578 4.6875 19.3011L4.6875 15.9148C4.6875 15.3625 5.13521 14.9148 5.6875 14.9148L9.20167 14.9148C9.75396 14.9148 10.2017 15.3625 10.2017 15.9148L10.2017 17.2173C10.2017 17.7696 10.6494 18.2173 11.2017 18.2173L14.4577 18.2173C15.01 18.2173 15.4577 17.7696 15.4577 17.2173L15.4577 13.5203C15.4577 12.968 15.01 12.5203 14.4577 12.5203L5.6875 12.5203C5.13521 12.5203 4.6875 12.0726 4.6875 11.5203L4.6875 5.6875C4.6875 5.13521 5.13522 4.6875 5.6875 4.6875Z" fill="white"/>
</svg>
